<svg width="118" height="100" viewBox="0 0 118 100" fill="none" xmlns="http://www.w3.org/2000/svg">
<path fill-rule="evenodd" clip-rule="evenodd" d="M118 15.6182C100.326 24.2951 91.4895 34.4902 91.4895 46.2039C99.0226 47.0716 105.252 50.1446 110.177 55.423C115.103 60.7014 117.565 66.8112 117.565 73.7527C117.565 81.128 115.175 87.3463 110.395 92.4078C105.614 97.4693 99.602 100 92.3587 100C84.2462 100 77.2202 96.7101 71.2807 90.1301C65.3412 83.5502 62.3714 75.5604 62.3714 66.1605C62.3714 37.9608 78.1617 15.9075 109.743 0L118 15.6182ZM55.6286 15.6182C37.81 24.2951 28.9008 34.4902 28.9008 46.2039C36.5787 47.0716 42.8803 50.1446 47.8058 55.423C52.7313 60.7014 55.194 66.8112 55.194 73.7527C55.194 81.128 52.7675 87.3463 47.9145 92.4078C43.0614 97.4693 37.0133 100 29.77 100C21.6574 100 14.6677 96.7101 8.80061 90.1301C2.93351 83.5502 0 75.5604 0 66.1605C0 37.9608 15.7178 15.9075 47.1539 0L55.6286 15.6182Z" fill="#EFF4FF"/>
</svg>
