<svg width="258" height="178" viewBox="0 0 258 178" fill="none" xmlns="http://www.w3.org/2000/svg">
<path d="M119.894 166.964C164.586 166.964 200.816 130.914 200.816 86.4446C200.816 41.975 164.586 5.92529 119.894 5.92529C75.202 5.92529 38.972 41.975 38.972 86.4446C38.972 130.914 75.202 166.964 119.894 166.964Z" fill="#F1F1FF" fill-opacity="0.6"/>
<path d="M196.095 28.4949H62.3213C55.1416 28.4949 49.3213 34.2862 49.3213 41.4302V113.921C49.3213 121.065 55.1416 126.857 62.3213 126.857H196.095C203.275 126.857 209.095 121.065 209.095 113.921V41.4302C209.095 34.2862 203.275 28.4949 196.095 28.4949Z" fill="white" stroke="#202058" stroke-width="2"/>
<path d="M122.2 58.3472H62.5931C60.8583 58.3472 59.4519 59.7465 59.4519 61.4727V95.2252C59.4519 96.9514 60.8583 98.3508 62.5931 98.3508H122.2C123.935 98.3508 125.341 96.9514 125.341 95.2252V61.4727C125.341 59.7465 123.935 58.3472 122.2 58.3472Z" fill="#F6F6FA"/>
<g filter="url(#filter0_d_32_200)">
<path d="M92.9549 84.4786C96.3571 84.4786 99.1151 81.7343 99.1151 78.3491C99.1151 74.9638 96.3571 72.2195 92.9549 72.2195C89.5527 72.2195 86.7947 74.9638 86.7947 78.3491C86.7947 81.7343 89.5527 84.4786 92.9549 84.4786Z" fill="white"/>
<path d="M92.9552 68.3481C87.4128 68.3481 82.9043 72.8341 82.9043 78.349C82.9043 83.8639 87.4128 88.3498 92.9552 88.3498C98.4976 88.3498 103.006 83.8639 103.006 78.349C103.006 72.8341 98.4976 68.3481 92.9552 68.3481ZM91.3852 82.0815C90.9198 82.3538 90.3332 82.02 90.3332 81.4828V75.2152C90.3332 74.678 90.9198 74.3442 91.3852 74.6165L96.7393 77.7503C97.1981 78.0189 97.1981 78.6791 96.7393 78.9476L91.3852 82.0815Z" fill="#3434FF"/>
</g>
<path d="M123.666 101.685H61.1271C60.2019 101.685 59.4519 102.431 59.4519 103.351C59.4519 104.272 60.2019 105.018 61.1271 105.018H123.666C124.591 105.018 125.341 104.272 125.341 103.351C125.341 102.431 124.591 101.685 123.666 101.685Z" fill="#ECECF4"/>
<path d="M123.666 101.685H61.1271C60.2019 101.685 59.4519 102.431 59.4519 103.351C59.4519 104.272 60.2019 105.018 61.1271 105.018H123.666C124.591 105.018 125.341 104.272 125.341 103.351C125.341 102.431 124.591 101.685 123.666 101.685Z" fill="#3434FF"/>
<path d="M122.2 110.516H62.5931C60.8583 110.516 59.4519 111.916 59.4519 113.642V147.394C59.4519 149.121 60.8583 150.52 62.5931 150.52H122.2C123.935 150.52 125.341 149.121 125.341 147.394V113.642C125.341 111.916 123.935 110.516 122.2 110.516Z" fill="#F6F6FA"/>
<g filter="url(#filter1_d_32_200)">
<path d="M92.9549 136.647C96.3571 136.647 99.1151 133.903 99.1151 130.517C99.1151 127.132 96.3571 124.388 92.9549 124.388C89.5527 124.388 86.7947 127.132 86.7947 130.517C86.7947 133.903 89.5527 136.647 92.9549 136.647Z" fill="white"/>
<path d="M92.9552 120.516C87.4128 120.516 82.9043 125.003 82.9043 130.517C82.9043 136.033 87.4128 140.518 92.9552 140.518C98.4976 140.518 103.006 136.033 103.006 130.517C103.006 125.003 98.4976 120.516 92.9552 120.516ZM91.3852 134.25C90.9198 134.522 90.3332 134.189 90.3332 133.652V127.384C90.3332 126.847 90.9198 126.512 91.3852 126.785L96.7393 129.919C97.1981 130.187 97.1981 130.848 96.7393 131.116L91.3852 134.25Z" fill="#3434FF"/>
</g>
<path d="M123.666 153.853H61.1271C60.2019 153.853 59.4519 154.599 59.4519 155.519C59.4519 156.44 60.2019 157.186 61.1271 157.186H123.666C124.591 157.186 125.341 156.44 125.341 155.519C125.341 154.599 124.591 153.853 123.666 153.853Z" fill="#ECECF4"/>
<path d="M97.9804 153.853H61.1271C60.2019 153.853 59.4519 154.599 59.4519 155.519C59.4519 156.44 60.2019 157.186 61.1271 157.186H97.9804C98.9055 157.186 99.6555 156.44 99.6555 155.519C99.6555 154.599 98.9055 153.853 97.9804 153.853Z" fill="#3434FF"/>
<path d="M194.056 58.3472H134.449C132.714 58.3472 131.308 59.7465 131.308 61.4727V95.2252C131.308 96.9514 132.714 98.3508 134.449 98.3508H194.056C195.791 98.3508 197.197 96.9514 197.197 95.2252V61.4727C197.197 59.7465 195.791 58.3472 194.056 58.3472Z" fill="#F6F6FA"/>
<g filter="url(#filter2_d_32_200)">
<path d="M164.81 84.4786C168.212 84.4786 170.97 81.7343 170.97 78.3491C170.97 74.9638 168.212 72.2195 164.81 72.2195C161.408 72.2195 158.65 74.9638 158.65 78.3491C158.65 81.7343 161.408 84.4786 164.81 84.4786Z" fill="white"/>
<path d="M164.81 68.3481C159.268 68.3481 154.76 72.8341 154.76 78.349C154.76 83.8639 159.268 88.3498 164.81 88.3498C170.353 88.3498 174.861 83.8639 174.861 78.349C174.861 72.8341 170.353 68.3481 164.81 68.3481ZM163.24 82.0815C162.775 82.3538 162.188 82.02 162.188 81.4828V75.2152C162.188 74.678 162.775 74.3442 163.24 74.6165L168.595 77.7503C169.053 78.0189 169.053 78.6791 168.595 78.9476L163.24 82.0815Z" fill="#3434FF"/>
</g>
<path d="M195.521 101.685H132.982C132.057 101.685 131.307 102.431 131.307 103.351C131.307 104.272 132.057 105.018 132.982 105.018H195.521C196.446 105.018 197.196 104.272 197.196 103.351C197.196 102.431 196.446 101.685 195.521 101.685Z" fill="#ECECF4"/>
<path d="M156.974 101.685H132.982C132.057 101.685 131.307 102.431 131.307 103.351C131.307 104.272 132.057 105.018 132.982 105.018H156.974C157.899 105.018 158.649 104.272 158.649 103.351C158.649 102.431 157.899 101.685 156.974 101.685Z" fill="#3434FF"/>
<path d="M194.056 110.516H134.449C132.714 110.516 131.308 111.916 131.308 113.642V147.394C131.308 149.121 132.714 150.52 134.449 150.52H194.056C195.791 150.52 197.197 149.121 197.197 147.394V113.642C197.197 111.916 195.791 110.516 194.056 110.516Z" fill="#F6F6FA"/>
<g filter="url(#filter3_d_32_200)">
<path d="M164.81 136.647C168.212 136.647 170.97 133.903 170.97 130.517C170.97 127.132 168.212 124.388 164.81 124.388C161.408 124.388 158.65 127.132 158.65 130.517C158.65 133.903 161.408 136.647 164.81 136.647Z" fill="white"/>
<path d="M164.81 120.516C159.268 120.516 154.76 125.003 154.76 130.517C154.76 136.033 159.268 140.518 164.81 140.518C170.353 140.518 174.861 136.033 174.861 130.517C174.861 125.003 170.353 120.516 164.81 120.516ZM163.24 134.25C162.775 134.522 162.188 134.189 162.188 133.652V127.384C162.188 126.847 162.775 126.512 163.24 126.785L168.595 129.919C169.053 130.187 169.053 130.848 168.595 131.116L163.24 134.25Z" fill="#3434FF"/>
</g>
<path d="M195.521 153.853H132.982C132.057 153.853 131.307 154.599 131.307 155.519C131.307 156.44 132.057 157.186 132.982 157.186H195.521C196.446 157.186 197.196 156.44 197.196 155.519C197.196 154.599 196.446 153.853 195.521 153.853Z" fill="#ECECF4"/>
<path d="M169.836 153.853H132.982C132.057 153.853 131.307 154.599 131.307 155.519C131.307 156.44 132.057 157.186 132.982 157.186H169.836C170.761 157.186 171.511 156.44 171.511 155.519C171.511 154.599 170.761 153.853 169.836 153.853Z" fill="#3434FF"/>
<path d="M196.672 35.384H61.7456C60.0888 35.384 58.7456 36.7205 58.7456 38.3691V50.3408C58.7456 51.9894 60.0888 53.3258 61.7456 53.3258H196.672C198.328 53.3258 199.672 51.9894 199.672 50.3408V38.3691C199.672 36.7205 198.328 35.384 196.672 35.384Z" fill="#F3F3FF"/>
<g filter="url(#filter4_d_32_200)">
<path d="M210.095 89.0732C231.184 89.0732 248.281 72.062 248.281 51.0775C248.281 30.0931 231.184 13.0818 210.095 13.0818C189.005 13.0818 171.909 30.0931 171.909 51.0775C171.909 72.062 189.005 89.0732 210.095 89.0732Z" fill="white"/>
<path d="M210.095 88.0783C230.632 88.0783 247.281 71.5125 247.281 51.0776C247.281 30.6427 230.632 14.0769 210.095 14.0769C189.558 14.0769 172.909 30.6427 172.909 51.0776C172.909 71.5125 189.558 88.0783 210.095 88.0783Z" stroke="#202058" stroke-width="2"/>
</g>
<path d="M210.095 15.3203C219.622 15.3203 228.759 19.0862 235.496 25.7895C242.233 32.4929 246.018 41.5845 246.018 51.0644C246.018 60.5443 242.233 69.6359 235.496 76.3392C228.759 83.0425 219.622 86.8084 210.095 86.8084V51.0644V15.3203Z" fill="#E0E0F7"/>
<g filter="url(#filter5_d_32_200)">
<path d="M233.114 58.397L210.988 50.3841C210.061 50.0482 209.035 50.524 208.698 51.4469L208.698 51.4469C208.36 52.3697 208.838 53.3901 209.766 53.726L231.891 61.739C232.819 62.0749 233.844 61.599 234.182 60.6762C234.519 59.7533 234.041 58.7329 233.114 58.397Z" fill="#202058"/>
<path d="M219.835 39.4985C220.401 38.694 220.204 37.5852 219.396 37.0219C218.587 36.4586 217.473 36.6541 216.907 37.4586L208.348 49.6209C207.782 50.4254 207.978 51.5342 208.787 52.0975C209.595 52.6608 210.71 52.4653 211.276 51.6608L219.835 39.4985Z" fill="#202058"/>
<path d="M210.095 56.5161C213.113 56.5161 215.56 54.0813 215.56 51.0778C215.56 48.0742 213.113 45.6394 210.095 45.6394C207.076 45.6394 204.629 48.0742 204.629 51.0778C204.629 54.0813 207.076 56.5161 210.095 56.5161Z" fill="#202058"/>
</g>
<path d="M61.4894 127.816H197.409C203.242 127.816 208.667 130.792 211.782 135.7L230.601 165.349C233.545 169.987 230.196 176.033 224.683 176.033H33.8745C28.3361 176.033 24.9912 169.936 27.9866 165.302L47.1901 135.583C50.3183 130.742 55.7054 127.816 61.4894 127.816Z" fill="#F4F4FA" stroke="#202058" stroke-width="2"/>
<path d="M60.9105 125.452H197.986C203.519 125.452 208.705 128.131 211.889 132.633L229.51 157.55C232.774 162.165 229.457 168.523 223.786 168.523H34.7919C29.0938 168.523 25.7831 162.111 29.1015 157.502L47.0908 132.516C50.2833 128.083 55.4287 125.452 60.9105 125.452Z" fill="white" stroke="#202058" stroke-width="2"/>
<path d="M109.252 155.023C109.994 153.92 111.241 153.259 112.575 153.259H145.851C147.186 153.259 148.433 153.921 149.176 155.026L152.639 160.179C153.528 161.501 152.576 163.275 150.977 163.275H107.443C105.843 163.275 104.891 161.499 105.781 160.178L109.252 155.023Z" fill="#F0F0F9"/>
<path d="M60.1448 130.525C60.9048 129.634 62.0207 129.119 63.1962 129.119H196.628C197.812 129.119 198.935 129.641 199.695 130.544L214.09 147.653C215.18 148.948 214.254 150.92 212.556 150.92H47.0893C45.3858 150.92 44.4622 148.936 45.5636 147.644L60.1448 130.525Z" fill="#F0F0F9"/>
<g filter="url(#filter6_d_32_200)">
<path d="M46.3797 136.221C57.8391 136.221 67.1288 126.977 67.1288 115.575C67.1288 104.173 57.8391 94.9292 46.3797 94.9292C34.9203 94.9292 25.6306 104.173 25.6306 115.575C25.6306 126.977 34.9203 136.221 46.3797 136.221Z" fill="white"/>
<path d="M46.1152 136.189C56.9023 136.189 65.6471 127.488 65.6471 116.754C65.6471 106.021 56.9023 97.3196 46.1152 97.3196C35.328 97.3196 26.5833 106.021 26.5833 116.754C26.5833 127.488 35.328 136.189 46.1152 136.189Z" fill="white"/>
<path d="M46.452 80.7449C26.3511 80.7449 10 97.0149 10 117.016C10 137.017 26.3511 153.287 46.452 153.287C66.5529 153.287 82.9041 137.017 82.9041 117.016C82.9041 97.0149 66.5529 80.7449 46.452 80.7449ZM40.9364 130.448C39.1698 131.482 36.9428 130.215 36.9428 128.175V105.856C36.9428 103.817 39.1698 102.549 40.9364 103.583L60.0026 114.743C61.7444 115.762 61.7444 118.269 60.0026 119.289L40.9364 130.448Z" fill="#3434FF"/>
</g>
<defs>
<filter id="filter0_d_32_200" x="79.4141" y="65.905" width="27.0822" height="26.9821" filterUnits="userSpaceOnUse" color-interpolation-filters="sRGB">
<feFlood flood-opacity="0" result="BackgroundImageFix"/>
<feColorMatrix in="SourceAlpha" type="matrix" values="0 0 0 0 0 0 0 0 0 0 0 0 0 0 0 0 0 0 127 0" result="hardAlpha"/>
<feOffset dy="1.04706"/>
<feGaussianBlur stdDeviation="1.7451"/>
<feColorMatrix type="matrix" values="0 0 0 0 0.203922 0 0 0 0 0.203922 0 0 0 0 1 0 0 0 0.25 0"/>
<feBlend mode="normal" in2="BackgroundImageFix" result="effect1_dropShadow_32_200"/>
<feBlend mode="normal" in="SourceGraphic" in2="effect1_dropShadow_32_200" result="shape"/>
</filter>
<filter id="filter1_d_32_200" x="79.4141" y="118.073" width="27.0822" height="26.9824" filterUnits="userSpaceOnUse" color-interpolation-filters="sRGB">
<feFlood flood-opacity="0" result="BackgroundImageFix"/>
<feColorMatrix in="SourceAlpha" type="matrix" values="0 0 0 0 0 0 0 0 0 0 0 0 0 0 0 0 0 0 127 0" result="hardAlpha"/>
<feOffset dy="1.04706"/>
<feGaussianBlur stdDeviation="1.7451"/>
<feColorMatrix type="matrix" values="0 0 0 0 0.203922 0 0 0 0 0.203922 0 0 0 0 1 0 0 0 0.25 0"/>
<feBlend mode="normal" in2="BackgroundImageFix" result="effect1_dropShadow_32_200"/>
<feBlend mode="normal" in="SourceGraphic" in2="effect1_dropShadow_32_200" result="shape"/>
</filter>
<filter id="filter2_d_32_200" x="151.27" y="65.905" width="27.0815" height="26.9821" filterUnits="userSpaceOnUse" color-interpolation-filters="sRGB">
<feFlood flood-opacity="0" result="BackgroundImageFix"/>
<feColorMatrix in="SourceAlpha" type="matrix" values="0 0 0 0 0 0 0 0 0 0 0 0 0 0 0 0 0 0 127 0" result="hardAlpha"/>
<feOffset dy="1.04706"/>
<feGaussianBlur stdDeviation="1.7451"/>
<feColorMatrix type="matrix" values="0 0 0 0 0.203922 0 0 0 0 0.203922 0 0 0 0 1 0 0 0 0.25 0"/>
<feBlend mode="normal" in2="BackgroundImageFix" result="effect1_dropShadow_32_200"/>
<feBlend mode="normal" in="SourceGraphic" in2="effect1_dropShadow_32_200" result="shape"/>
</filter>
<filter id="filter3_d_32_200" x="151.27" y="118.073" width="27.0815" height="26.9824" filterUnits="userSpaceOnUse" color-interpolation-filters="sRGB">
<feFlood flood-opacity="0" result="BackgroundImageFix"/>
<feColorMatrix in="SourceAlpha" type="matrix" values="0 0 0 0 0 0 0 0 0 0 0 0 0 0 0 0 0 0 127 0" result="hardAlpha"/>
<feOffset dy="1.04706"/>
<feGaussianBlur stdDeviation="1.7451"/>
<feColorMatrix type="matrix" values="0 0 0 0 0.203922 0 0 0 0 0.203922 0 0 0 0 1 0 0 0 0.25 0"/>
<feBlend mode="normal" in2="BackgroundImageFix" result="effect1_dropShadow_32_200"/>
<feBlend mode="normal" in="SourceGraphic" in2="effect1_dropShadow_32_200" result="shape"/>
</filter>
<filter id="filter4_d_32_200" x="152.909" y="0.0769043" width="114.371" height="114.001" filterUnits="userSpaceOnUse" color-interpolation-filters="sRGB">
<feFlood flood-opacity="0" result="BackgroundImageFix"/>
<feColorMatrix in="SourceAlpha" type="matrix" values="0 0 0 0 0 0 0 0 0 0 0 0 0 0 0 0 0 0 127 0" result="hardAlpha"/>
<feOffset dy="6"/>
<feGaussianBlur stdDeviation="9.5"/>
<feColorMatrix type="matrix" values="0 0 0 0 0.164913 0 0 0 0 0.164913 0 0 0 0 0.670833 0 0 0 0.21 0"/>
<feBlend mode="normal" in2="BackgroundImageFix" result="effect1_dropShadow_32_200"/>
<feBlend mode="normal" in="SourceGraphic" in2="effect1_dropShadow_32_200" result="shape"/>
</filter>
<filter id="filter5_d_32_200" x="199.629" y="33.7002" width="39.6606" height="35.1465" filterUnits="userSpaceOnUse" color-interpolation-filters="sRGB">
<feFlood flood-opacity="0" result="BackgroundImageFix"/>
<feColorMatrix in="SourceAlpha" type="matrix" values="0 0 0 0 0 0 0 0 0 0 0 0 0 0 0 0 0 0 127 0" result="hardAlpha"/>
<feOffset dy="2"/>
<feGaussianBlur stdDeviation="2.5"/>
<feColorMatrix type="matrix" values="0 0 0 0 0.12 0 0 0 0 0.12 0 0 0 0 0.8 0 0 0 0.18 0"/>
<feBlend mode="normal" in2="BackgroundImageFix" result="effect1_dropShadow_32_200"/>
<feBlend mode="normal" in="SourceGraphic" in2="effect1_dropShadow_32_200" result="shape"/>
</filter>
<filter id="filter6_d_32_200" x="-6" y="69.7449" width="104.904" height="104.542" filterUnits="userSpaceOnUse" color-interpolation-filters="sRGB">
<feFlood flood-opacity="0" result="BackgroundImageFix"/>
<feColorMatrix in="SourceAlpha" type="matrix" values="0 0 0 0 0 0 0 0 0 0 0 0 0 0 0 0 0 0 127 0" result="hardAlpha"/>
<feOffset dy="5"/>
<feGaussianBlur stdDeviation="8"/>
<feColorMatrix type="matrix" values="0 0 0 0 0.203922 0 0 0 0 0.203922 0 0 0 0 1 0 0 0 0.24 0"/>
<feBlend mode="normal" in2="BackgroundImageFix" result="effect1_dropShadow_32_200"/>
<feBlend mode="normal" in="SourceGraphic" in2="effect1_dropShadow_32_200" result="shape"/>
</filter>
</defs>
</svg>
