<svg width="258" height="184" viewBox="0 0 258 184" fill="none" xmlns="http://www.w3.org/2000/svg">
<path d="M127 178.06C176.153 178.06 216 138.411 216 89.5025C216 40.5937 176.153 0.945312 127 0.945312C77.8467 0.945312 38 40.5937 38 89.5025C38 138.411 77.8467 178.06 127 178.06Z" fill="#F1F1FF" fill-opacity="0.6"/>
<path d="M197 27.811H45C35.6112 27.811 28 35.3843 28 44.7265V132.289C28 141.631 35.6112 149.204 45 149.204H197C206.389 149.204 214 141.631 214 132.289V44.7265C214 35.3843 206.389 27.811 197 27.811Z" fill="white" stroke="#202058" stroke-width="2"/>
<path d="M121 49.7014H46C41.5817 49.7014 38 53.2653 38 57.6616V128.308C38 132.705 41.5817 136.269 46 136.269H121C125.418 136.269 129 132.705 129 128.308V57.6616C129 53.2653 125.418 49.7014 121 49.7014Z" fill="#F0F0FF"/>
<g filter="url(#filter0_d_32_252)">
<path d="M84.0001 107.509C91.7856 107.509 98.0969 101.229 98.0969 93.4827C98.0969 85.736 91.7856 79.4561 84.0001 79.4561C76.2147 79.4561 69.9033 85.736 69.9033 93.4827C69.9033 101.229 76.2147 107.509 84.0001 107.509Z" fill="white"/>
<path d="M84 70.5972C71.317 70.5972 61 80.8628 61 93.4827C61 106.103 71.317 116.368 84 116.368C96.683 116.368 107 106.103 107 93.4827C107 80.8628 96.683 70.5972 84 70.5972ZM81.014 101.669C79.6808 102.449 78 101.493 78 99.9534V87.0119C78 85.4728 79.6808 84.5163 81.014 85.2967L92.0694 91.7673C93.384 92.5365 93.384 94.429 92.0694 95.1982L81.014 101.669Z" fill="#3434FF"/>
</g>
<path d="M44 43.7314C46.2091 43.7314 48 41.9495 48 39.7513C48 37.5532 46.2091 35.7712 44 35.7712C41.7909 35.7712 40 37.5532 40 39.7513C40 41.9495 41.7909 43.7314 44 43.7314Z" fill="#3434FF"/>
<path d="M56 43.7314C58.2091 43.7314 60 41.9495 60 39.7513C60 37.5532 58.2091 35.7712 56 35.7712C53.7909 35.7712 52 37.5532 52 39.7513C52 41.9495 53.7909 43.7314 56 43.7314Z" fill="#ECECF4"/>
<path d="M200 49.7014H141C138.791 49.7014 137 51.4834 137 53.6815V77.5621C137 79.7603 138.791 81.5422 141 81.5422H200C202.209 81.5422 204 79.7603 204 77.5621V53.6815C204 51.4834 202.209 49.7014 200 49.7014Z" fill="#F6F6FA"/>
<path d="M200 87.5125H141C138.791 87.5125 137 89.2944 137 91.4926V115.373C137 117.571 138.791 119.353 141 119.353H200C202.209 119.353 204 117.571 204 115.373V91.4926C204 89.2944 202.209 87.5125 200 87.5125Z" fill="#F6F6FA"/>
<g filter="url(#filter1_d_32_252)">
<path d="M200 127.313H141C138.791 127.313 137 129.095 137 131.294V158.159C137 160.357 138.791 162.139 141 162.139H200C202.209 162.139 204 160.357 204 158.159V131.294C204 129.095 202.209 127.313 200 127.313Z" fill="#3434FF"/>
</g>
<path d="M68 43.7314C70.2091 43.7314 72 41.9495 72 39.7513C72 37.5532 70.2091 35.7712 68 35.7712C65.7909 35.7712 64 37.5532 64 39.7513C64 41.9495 65.7909 43.7314 68 43.7314Z" fill="#ECECF4"/>
<g filter="url(#filter2_d_32_252)">
<path d="M240 9.90063H168C162.477 9.90063 158 14.3555 158 19.8509V55.6718C158 61.1671 162.477 65.622 168 65.622H240C245.523 65.622 250 61.1671 250 55.6718V19.8509C250 14.3555 245.523 9.90063 240 9.90063Z" fill="white"/>
<path d="M240 10.8958H168C163.029 10.8958 159 14.9051 159 19.851V55.6719C159 60.6177 163.029 64.6271 168 64.6271H240C244.971 64.6271 249 60.6177 249 55.6719V19.851C249 14.9051 244.971 10.8958 240 10.8958Z" stroke="#202058" stroke-width="2"/>
</g>
<g filter="url(#filter3_d_32_252)">
<path d="M175 32.6898C177.708 32.6898 179.903 30.5055 179.903 27.811C179.903 25.1165 177.708 22.9321 175 22.9321C172.292 22.9321 170.097 25.1165 170.097 27.811C170.097 30.5055 172.292 32.6898 175 32.6898Z" fill="white"/>
<path d="M175 19.8508C170.589 19.8508 167 23.4215 167 27.811C167 32.2006 170.589 35.7712 175 35.7712C179.411 35.7712 183 32.2006 183 27.811C183 23.4215 179.411 19.8508 175 19.8508ZM174.253 30.4879C173.66 30.8347 172.913 30.4096 172.913 29.7256V25.8965C172.913 25.2124 173.66 24.7873 174.253 25.1341L177.524 27.0486C178.108 27.3906 178.108 28.2314 177.524 28.5734L174.253 30.4879Z" fill="#3434FF"/>
</g>
<path d="M207.5 22.8359H187.5C186.672 22.8359 186 23.5042 186 24.3285C186 25.1528 186.672 25.821 187.5 25.821H207.5C208.328 25.821 209 25.1528 209 24.3285C209 23.5042 208.328 22.8359 207.5 22.8359Z" fill="#3434FF"/>
<path d="M217.5 29.801H187.5C186.672 29.801 186 30.4693 186 31.2936C186 32.1179 186.672 32.7861 187.5 32.7861H217.5C218.328 32.7861 219 32.1179 219 31.2936C219 30.4693 218.328 29.801 217.5 29.801Z" fill="#ECECF4"/>
<path d="M190.5 39.7512H168.5C167.672 39.7512 167 40.4195 167 41.2438C167 42.0681 167.672 42.7363 168.5 42.7363H190.5C191.328 42.7363 192 42.0681 192 41.2438C192 40.4195 191.328 39.7512 190.5 39.7512Z" fill="#ECECF4"/>
<path d="M211.5 46.7166H168.5C167.672 46.7166 167 47.3848 167 48.2091C167 49.0334 167.672 49.7016 168.5 49.7016H211.5C212.328 49.7016 213 49.0334 213 48.2091C213 47.3848 212.328 46.7166 211.5 46.7166Z" fill="#ECECF4"/>
<path d="M177.5 53.6816H168.5C167.672 53.6816 167 54.3499 167 55.1742C167 55.9985 167.672 56.6667 168.5 56.6667H177.5C178.328 56.6667 179 55.9985 179 55.1742C179 54.3499 178.328 53.6816 177.5 53.6816Z" fill="#ECECF4"/>
<path d="M198.5 53.6816H184.5C183.672 53.6816 183 54.3499 183 55.1742C183 55.9985 183.672 56.6667 184.5 56.6667H198.5C199.328 56.6667 200 55.9985 200 55.1742C200 54.3499 199.328 53.6816 198.5 53.6816Z" fill="#ECECF4"/>
<path d="M239.5 39.7512H197.5C196.672 39.7512 196 40.4195 196 41.2438C196 42.0681 196.672 42.7363 197.5 42.7363H239.5C240.328 42.7363 241 42.0681 241 41.2438C241 40.4195 240.328 39.7512 239.5 39.7512Z" fill="#ECECF4"/>
<path d="M225.5 46.7166H218.5C217.672 46.7166 217 47.3848 217 48.2091C217 49.0334 217.672 49.7016 218.5 49.7016H225.5C226.328 49.7016 227 49.0334 227 48.2091C227 47.3848 226.328 46.7166 225.5 46.7166Z" fill="#3434FF"/>
<path d="M231.5 29.801H224.5C223.672 29.801 223 30.4693 223 31.2936C223 32.1179 223.672 32.7861 224.5 32.7861H231.5C232.328 32.7861 233 32.1179 233 31.2936C233 30.4693 232.328 29.801 231.5 29.801Z" fill="#ECECF4"/>
<path d="M180.5 136.269H145.5C144.672 136.269 144 136.937 144 137.761C144 138.585 144.672 139.254 145.5 139.254H180.5C181.328 139.254 182 138.585 182 137.761C182 136.937 181.328 136.269 180.5 136.269Z" fill="white"/>
<path d="M196.5 143.234H145.5C144.672 143.234 144 143.902 144 144.726C144 145.551 144.672 146.219 145.5 146.219H196.5C197.328 146.219 198 145.551 198 144.726C198 143.902 197.328 143.234 196.5 143.234Z" fill="white"/>
<path d="M164.5 150.199H145.5C144.672 150.199 144 150.867 144 151.692C144 152.516 144.672 153.184 145.5 153.184H164.5C165.328 153.184 166 152.516 166 151.692C166 150.867 165.328 150.199 164.5 150.199Z" fill="white"/>
<g filter="url(#filter4_d_32_252)">
<path d="M62.5088 118.358H17.7719C12.9273 118.358 9 122.266 9 127.086V159.381C9 164.202 12.9273 168.109 17.7719 168.109H62.5088C67.3534 168.109 71.2807 164.202 71.2807 159.381V127.086C71.2807 122.266 67.3534 118.358 62.5088 118.358Z" fill="white"/>
<path d="M62.5088 119.353H17.7719C13.4796 119.353 10 122.816 10 127.087V159.381C10 163.652 13.4796 167.114 17.7719 167.114H62.5088C66.8011 167.114 70.2807 163.652 70.2807 159.381V127.087C70.2807 122.816 66.8011 119.353 62.5088 119.353Z" stroke="#202058" stroke-width="2"/>
</g>
<path d="M60.1913 127.313H20.1412C18.4064 127.313 17 128.713 17 130.439V152.318C17 154.044 18.4064 155.443 20.1412 155.443H60.1913C61.9261 155.443 63.3325 154.044 63.3325 152.318V130.439C63.3325 128.713 61.9261 127.313 60.1913 127.313Z" fill="#F6F6FA"/>
<g filter="url(#filter5_d_32_252)">
<path d="M40.5593 145.688C42.9517 145.688 44.8911 143.759 44.8911 141.378C44.8911 138.998 42.9517 137.068 40.5593 137.068C38.1669 137.068 36.2275 138.998 36.2275 141.378C36.2275 143.759 38.1669 145.688 40.5593 145.688Z" fill="white"/>
<path d="M40.5589 134.345C36.6615 134.345 33.4912 137.5 33.4912 141.378C33.4912 145.256 36.6615 148.411 40.5589 148.411C44.4562 148.411 47.6265 145.256 47.6265 141.378C47.6265 137.5 44.4562 134.345 40.5589 134.345ZM39.7671 143.82C39.3018 144.092 38.7151 143.758 38.7151 143.221V139.535C38.7151 138.998 39.3018 138.664 39.7671 138.936L42.9162 140.779C43.3751 141.048 43.3751 141.708 42.9162 141.977L39.7671 143.82Z" fill="#3434FF"/>
</g>
<path d="M62.1546 157.788H18.1779C17.5274 157.788 17 158.313 17 158.96C17 159.607 17.5274 160.132 18.1779 160.132H62.1546C62.8051 160.132 63.3325 159.607 63.3325 158.96C63.3325 158.313 62.8051 157.788 62.1546 157.788Z" fill="#ECECF4"/>
<path d="M44.0927 157.788H18.1779C17.5274 157.788 17 158.313 17 158.96C17 159.607 17.5274 160.132 18.1779 160.132H44.0927C44.7432 160.132 45.2706 159.607 45.2706 158.96C45.2706 158.313 44.7432 157.788 44.0927 157.788Z" fill="#3434FF"/>
<defs>
<filter id="filter0_d_32_252" x="53" y="65.5972" width="62" height="61.7712" filterUnits="userSpaceOnUse" color-interpolation-filters="sRGB">
<feFlood flood-opacity="0" result="BackgroundImageFix"/>
<feColorMatrix in="SourceAlpha" type="matrix" values="0 0 0 0 0 0 0 0 0 0 0 0 0 0 0 0 0 0 127 0" result="hardAlpha"/>
<feOffset dy="3"/>
<feGaussianBlur stdDeviation="4"/>
<feColorMatrix type="matrix" values="0 0 0 0 0.203922 0 0 0 0 0.203922 0 0 0 0 1 0 0 0 0.32 0"/>
<feBlend mode="normal" in2="BackgroundImageFix" result="effect1_dropShadow_32_252"/>
<feBlend mode="normal" in="SourceGraphic" in2="effect1_dropShadow_32_252" result="shape"/>
</filter>
<filter id="filter1_d_32_252" x="127" y="122.313" width="87" height="54.8259" filterUnits="userSpaceOnUse" color-interpolation-filters="sRGB">
<feFlood flood-opacity="0" result="BackgroundImageFix"/>
<feColorMatrix in="SourceAlpha" type="matrix" values="0 0 0 0 0 0 0 0 0 0 0 0 0 0 0 0 0 0 127 0" result="hardAlpha"/>
<feOffset dy="5"/>
<feGaussianBlur stdDeviation="5"/>
<feColorMatrix type="matrix" values="0 0 0 0 0.203922 0 0 0 0 0.203922 0 0 0 0 1 0 0 0 0.19 0"/>
<feBlend mode="normal" in2="BackgroundImageFix" result="effect1_dropShadow_32_252"/>
<feBlend mode="normal" in="SourceGraphic" in2="effect1_dropShadow_32_252" result="shape"/>
</filter>
<filter id="filter2_d_32_252" x="147" y="4.89575" width="114" height="77.7314" filterUnits="userSpaceOnUse" color-interpolation-filters="sRGB">
<feFlood flood-opacity="0" result="BackgroundImageFix"/>
<feColorMatrix in="SourceAlpha" type="matrix" values="0 0 0 0 0 0 0 0 0 0 0 0 0 0 0 0 0 0 127 0" result="hardAlpha"/>
<feOffset dy="6"/>
<feGaussianBlur stdDeviation="5.5"/>
<feColorMatrix type="matrix" values="0 0 0 0 0.203922 0 0 0 0 0.203922 0 0 0 0 1 0 0 0 0.12 0"/>
<feBlend mode="normal" in2="BackgroundImageFix" result="effect1_dropShadow_32_252"/>
<feBlend mode="normal" in="SourceGraphic" in2="effect1_dropShadow_32_252" result="shape"/>
</filter>
<filter id="filter3_d_32_252" x="162.556" y="16.7397" width="24.8889" height="24.8093" filterUnits="userSpaceOnUse" color-interpolation-filters="sRGB">
<feFlood flood-opacity="0" result="BackgroundImageFix"/>
<feColorMatrix in="SourceAlpha" type="matrix" values="0 0 0 0 0 0 0 0 0 0 0 0 0 0 0 0 0 0 127 0" result="hardAlpha"/>
<feOffset dy="1.33333"/>
<feGaussianBlur stdDeviation="2.22222"/>
<feColorMatrix type="matrix" values="0 0 0 0 0.203922 0 0 0 0 0.203922 0 0 0 0 1 0 0 0 0.25 0"/>
<feBlend mode="normal" in2="BackgroundImageFix" result="effect1_dropShadow_32_252"/>
<feBlend mode="normal" in="SourceGraphic" in2="effect1_dropShadow_32_252" result="shape"/>
</filter>
<filter id="filter4_d_32_252" x="-0.64912" y="113.967" width="81.579" height="69.0595" filterUnits="userSpaceOnUse" color-interpolation-filters="sRGB">
<feFlood flood-opacity="0" result="BackgroundImageFix"/>
<feColorMatrix in="SourceAlpha" type="matrix" values="0 0 0 0 0 0 0 0 0 0 0 0 0 0 0 0 0 0 127 0" result="hardAlpha"/>
<feOffset dy="5.26316"/>
<feGaussianBlur stdDeviation="4.82456"/>
<feColorMatrix type="matrix" values="0 0 0 0 0.203922 0 0 0 0 0.203922 0 0 0 0 1 0 0 0 0.12 0"/>
<feBlend mode="normal" in2="BackgroundImageFix" result="effect1_dropShadow_32_252"/>
<feBlend mode="normal" in="SourceGraphic" in2="effect1_dropShadow_32_252" result="shape"/>
</filter>
<filter id="filter5_d_32_252" x="30.001" y="131.902" width="21.1157" height="21.0461" filterUnits="userSpaceOnUse" color-interpolation-filters="sRGB">
<feFlood flood-opacity="0" result="BackgroundImageFix"/>
<feColorMatrix in="SourceAlpha" type="matrix" values="0 0 0 0 0 0 0 0 0 0 0 0 0 0 0 0 0 0 127 0" result="hardAlpha"/>
<feOffset dy="1.04706"/>
<feGaussianBlur stdDeviation="1.7451"/>
<feColorMatrix type="matrix" values="0 0 0 0 0.203922 0 0 0 0 0.203922 0 0 0 0 1 0 0 0 0.25 0"/>
<feBlend mode="normal" in2="BackgroundImageFix" result="effect1_dropShadow_32_252"/>
<feBlend mode="normal" in="SourceGraphic" in2="effect1_dropShadow_32_252" result="shape"/>
</filter>
</defs>
</svg>
