<svg width="16" height="14" viewBox="0 0 16 14" fill="none" xmlns="http://www.w3.org/2000/svg">
<path fill-rule="evenodd" clip-rule="evenodd" d="M15.8865 2.18655C13.5071 3.40131 12.3174 4.82863 12.3174 6.46855C13.3316 6.59002 14.1702 7.02024 14.8333 7.75922C15.4965 8.4982 15.828 9.35357 15.828 10.3254C15.828 11.3579 15.5062 12.2285 14.8626 12.9371C14.219 13.6457 13.4096 14 12.4344 14C11.3422 14 10.3963 13.5394 9.59663 12.6182C8.79698 11.697 8.39716 10.5785 8.39716 9.26247C8.39716 5.31451 10.523 2.22705 14.7748 0L15.8865 2.18655ZM7.48936 2.18655C5.09041 3.40131 3.89096 4.82863 3.89096 6.46855C4.92465 6.59002 5.77305 7.02024 6.43617 7.75922C7.09929 8.4982 7.43085 9.35357 7.43085 10.3254C7.43085 11.3579 7.10417 12.2285 6.4508 12.9371C5.79743 13.6457 4.98316 14 4.00798 14C2.91577 14 1.97474 13.5394 1.18484 12.6182C0.394943 11.697 0 10.5785 0 9.26247C0 5.31451 2.11611 2.22705 6.3484 0L7.48936 2.18655Z" fill="#00C8F3"/>
</svg>
